<svg version="1.1" id="Layer_1" xmlns="http://www.w3.org/2000/svg" xmlns:xlink="http://www.w3.org/1999/xlink" x="0px" y="0px"
	 width="100%" viewBox="0 0 400 400" enable-background="new 0 0 400 400" xml:space="preserve">
<path fill="#FFFFFF" opacity="1.000000" stroke="none" 
	d="
M233.000000,401.000000 
	C155.333328,401.000000 78.166664,401.000000 1.000000,401.000000 
	C1.000000,267.666656 1.000000,134.333328 1.000000,1.000000 
	C134.333328,1.000000 267.666656,1.000000 401.000000,1.000000 
	C401.000000,134.333328 401.000000,267.666656 401.000000,401.000000 
	C345.166656,401.000000 289.333344,401.000000 233.000000,401.000000 
M366.000732,225.500000 
	C366.000732,186.676300 365.945557,147.852386 366.100037,109.029297 
	C366.113129,105.738914 365.105438,103.725555 362.436584,102.240479 
	C352.960236,96.967422 343.428589,91.790962 334.018280,86.402588 
	C311.143463,73.304413 288.341400,60.079155 265.478851,46.959457 
	C244.865128,35.130257 224.176849,23.430504 203.609055,11.522349 
	C200.541443,9.746283 198.297745,10.243893 195.453979,11.920827 
	C162.931915,31.098709 130.354309,50.182583 97.763145,69.243027 
	C77.705269,80.973579 57.577553,92.585030 37.564804,104.391678 
	C36.334045,105.117767 35.112206,107.085838 35.106274,108.481224 
	C34.968887,140.806107 34.981888,173.131775 35.075745,205.456970 
	C35.079166,206.635513 35.867958,208.359863 36.820797,208.907394 
	C60.692272,222.624130 84.566109,236.341064 108.640495,249.695679 
	C112.202904,251.671829 113.075150,253.767899 113.059570,257.429596 
	C112.946930,283.919434 113.101685,310.410797 112.886337,336.899353 
	C112.854736,340.785614 114.154594,342.849579 117.351410,344.667297 
	C144.640335,360.183441 171.849503,375.839905 199.156448,391.324066 
	C200.361801,392.007568 202.606689,392.016418 203.817856,391.346344 
	C212.908234,386.316986 221.886078,381.081665 230.851166,375.828918 
	C259.145081,359.251068 287.399414,342.605591 315.706543,326.050354 
	C331.044678,317.079926 346.449524,308.223297 361.847229,299.355255 
	C364.742615,297.687683 366.145996,295.681610 366.108795,291.982971 
	C365.889374,270.157166 366.000732,248.328018 366.000732,225.500000 
z"/>
<path fill="#FE6D22" opacity="1.000000" stroke="none" 
	d="
M366.000732,226.000000 
	C366.000732,248.328018 365.889374,270.157166 366.108795,291.982971 
	C366.145996,295.681610 364.742615,297.687683 361.847229,299.355255 
	C346.449524,308.223297 331.044678,317.079926 315.706543,326.050354 
	C287.399414,342.605591 259.145081,359.251068 230.851166,375.828918 
	C221.886078,381.081665 212.908234,386.316986 203.817856,391.346344 
	C202.606689,392.016418 200.361801,392.007568 199.156448,391.324066 
	C171.849503,375.839905 144.640335,360.183441 117.351410,344.667297 
	C114.154594,342.849579 112.854736,340.785614 112.886337,336.899353 
	C113.101685,310.410797 112.946930,283.919434 113.059570,257.429596 
	C113.075150,253.767899 112.202904,251.671829 108.640495,249.695679 
	C84.566109,236.341064 60.692272,222.624130 36.820797,208.907394 
	C35.867958,208.359863 35.079166,206.635513 35.075745,205.456970 
	C34.981888,173.131775 34.968887,140.806107 35.106274,108.481224 
	C35.112206,107.085838 36.334045,105.117767 37.564804,104.391678 
	C57.577553,92.585030 77.705269,80.973579 97.763145,69.243027 
	C130.354309,50.182583 162.931915,31.098709 195.453979,11.920827 
	C198.297745,10.243893 200.541443,9.746283 203.609055,11.522349 
	C224.176849,23.430504 244.865128,35.130257 265.478851,46.959457 
	C288.341400,60.079155 311.143463,73.304413 334.018280,86.402588 
	C343.428589,91.790962 352.960236,96.967422 362.436584,102.240479 
	C365.105438,103.725555 366.113129,105.738914 366.100037,109.029297 
	C365.945557,147.852386 366.000732,186.676300 366.000732,226.000000 
M113.000198,154.902954 
	C112.520660,151.829315 113.825668,149.897278 116.660706,148.689667 
	C118.468719,147.919525 120.130013,146.797989 121.838356,145.801895 
	C146.486664,131.430191 171.172211,117.121353 195.732620,102.600922 
	C199.275009,100.506615 202.061691,100.984596 205.286957,102.836060 
	C231.591110,117.935905 257.909760,133.010910 284.287994,147.980698 
	C286.843079,149.430740 288.121521,150.866592 288.107422,154.041687 
	C287.968323,185.370544 287.965668,216.700394 288.087494,248.029327 
	C288.098236,250.785004 287.178833,252.152054 284.926910,253.454544 
	C257.972290,269.044952 231.093033,284.765961 204.086823,300.265991 
	C202.524445,301.162720 199.671524,301.174103 198.047394,300.353790 
	C192.337067,297.469635 186.925171,293.999939 181.355667,290.830414 
	C172.673447,285.889465 163.954971,281.012207 154.422409,275.640594 
	C154.237259,278.080933 154.020111,279.644836 154.015762,281.209290 
	C153.985687,292.042236 154.160675,302.879089 153.904556,313.706024 
	C153.824921,317.072205 155.082169,318.799744 157.830093,320.333374 
	C168.765823,326.436646 179.991760,332.136414 190.360672,339.101471 
	C198.459167,344.541412 204.291443,343.634491 212.584824,338.621002 
	C248.551666,316.878357 285.126343,296.139526 321.549805,275.156891 
	C324.685059,273.350739 326.195465,271.263306 326.035889,267.643188 
	C325.648468,258.852661 325.240021,250.054764 325.205139,241.258392 
	C325.062378,205.263443 325.010101,169.267868 325.074371,133.272797 
	C325.080536,129.814972 323.869293,127.739006 320.986847,126.096527 
	C307.686127,118.517441 294.470764,110.788582 281.168732,103.211830 
	C255.094559,88.360161 229.005768,73.533539 202.826950,58.868069 
	C201.364609,58.048870 198.660400,58.099976 197.166031,58.910645 
	C189.488312,63.075668 182.025558,67.635902 174.472839,72.032524 
	C142.981354,90.364471 111.503471,108.719986 79.963333,126.967865 
	C76.418053,129.019043 74.917435,131.531036 75.055794,135.712982 
	C75.544983,150.499496 75.614403,165.300064 76.132912,180.085144 
	C76.192406,181.781570 77.720085,183.898392 79.186981,184.977753 
	C82.488831,187.407349 86.142120,189.374329 89.720139,191.410507 
	C97.229736,195.684082 104.782990,199.880920 113.000145,204.491852 
	C113.000145,187.709015 113.000145,171.763596 113.000198,154.902954 
M247.004745,195.500168 
	C247.004425,189.501358 247.220459,183.489761 246.867264,177.511810 
	C246.765976,175.797577 245.426529,173.494019 243.963440,172.626007 
	C230.502808,164.640259 216.935623,156.828979 203.256027,149.224884 
	C201.780365,148.404617 198.999420,148.525391 197.494751,149.384521 
	C184.038116,157.067780 170.678940,164.927673 157.449936,172.996078 
	C155.821701,173.989166 154.179062,176.493637 154.146683,178.326065 
	C153.881836,193.318420 153.994705,208.317520 154.000275,223.314560 
	C154.001480,226.536911 155.401230,228.660660 158.340485,230.315002 
	C171.283295,237.599777 184.026733,245.241638 197.036270,252.401871 
	C198.936722,253.447861 202.389771,253.507843 204.264999,252.470490 
	C217.660400,245.060349 230.879791,237.325500 244.010406,229.452484 
	C245.473373,228.575302 246.821167,226.207443 246.872391,224.490616 
	C247.150467,215.167404 247.004532,205.831558 247.004745,195.500168 
z"/>
<path fill="#FFFEFE" opacity="1.000000" stroke="none" 
	d="
M113.000168,155.360565 
	C113.000145,171.763596 113.000145,187.709015 113.000145,204.491852 
	C104.782990,199.880920 97.229736,195.684082 89.720139,191.410507 
	C86.142120,189.374329 82.488831,187.407349 79.186981,184.977753 
	C77.720085,183.898392 76.192406,181.781570 76.132912,180.085144 
	C75.614403,165.300064 75.544983,150.499496 75.055794,135.712982 
	C74.917435,131.531036 76.418053,129.019043 79.963333,126.967865 
	C111.503471,108.719986 142.981354,90.364471 174.472839,72.032524 
	C182.025558,67.635902 189.488312,63.075668 197.166031,58.910645 
	C198.660400,58.099976 201.364609,58.048870 202.826950,58.868069 
	C229.005768,73.533539 255.094559,88.360161 281.168732,103.211830 
	C294.470764,110.788582 307.686127,118.517441 320.986847,126.096527 
	C323.869293,127.739006 325.080536,129.814972 325.074371,133.272797 
	C325.010101,169.267868 325.062378,205.263443 325.205139,241.258392 
	C325.240021,250.054764 325.648468,258.852661 326.035889,267.643188 
	C326.195465,271.263306 324.685059,273.350739 321.549805,275.156891 
	C285.126343,296.139526 248.551666,316.878357 212.584824,338.621002 
	C204.291443,343.634491 198.459167,344.541412 190.360672,339.101471 
	C179.991760,332.136414 168.765823,326.436646 157.830093,320.333374 
	C155.082169,318.799744 153.824921,317.072205 153.904556,313.706024 
	C154.160675,302.879089 153.985687,292.042236 154.015762,281.209290 
	C154.020111,279.644836 154.237259,278.080933 154.422409,275.640594 
	C163.954971,281.012207 172.673447,285.889465 181.355667,290.830414 
	C186.925171,293.999939 192.337067,297.469635 198.047394,300.353790 
	C199.671524,301.174103 202.524445,301.162720 204.086823,300.265991 
	C231.093033,284.765961 257.972290,269.044952 284.926910,253.454544 
	C287.178833,252.152054 288.098236,250.785004 288.087494,248.029327 
	C287.965668,216.700394 287.968323,185.370544 288.107422,154.041687 
	C288.121521,150.866592 286.843079,149.430740 284.287994,147.980698 
	C257.909760,133.010910 231.591110,117.935905 205.286957,102.836060 
	C202.061691,100.984596 199.275009,100.506615 195.732620,102.600922 
	C171.172211,117.121353 146.486664,131.430191 121.838356,145.801895 
	C120.130013,146.797989 118.468719,147.919525 116.660706,148.689667 
	C113.825668,149.897278 112.520660,151.829315 113.000168,155.360565 
z"/>
<path fill="#FDFDFD" opacity="1.000000" stroke="none" 
	d="
M247.004669,196.000122 
	C247.004532,205.831558 247.150467,215.167404 246.872391,224.490616 
	C246.821167,226.207443 245.473373,228.575302 244.010406,229.452484 
	C230.879791,237.325500 217.660400,245.060349 204.264999,252.470490 
	C202.389771,253.507843 198.936722,253.447861 197.036270,252.401871 
	C184.026733,245.241638 171.283295,237.599777 158.340485,230.315002 
	C155.401230,228.660660 154.001480,226.536911 154.000275,223.314560 
	C153.994705,208.317520 153.881836,193.318420 154.146683,178.326065 
	C154.179062,176.493637 155.821701,173.989166 157.449936,172.996078 
	C170.678940,164.927673 184.038116,157.067780 197.494751,149.384521 
	C198.999420,148.525391 201.780365,148.404617 203.256027,149.224884 
	C216.935623,156.828979 230.502808,164.640259 243.963440,172.626007 
	C245.426529,173.494019 246.765976,175.797577 246.867264,177.511810 
	C247.220459,183.489761 247.004425,189.501358 247.004669,196.000122 
M170.562759,175.325272 
	C170.303207,175.817657 170.043655,176.310043 169.208008,177.172211 
	C156.867447,195.361694 160.791016,218.648819 178.261887,230.908798 
	C195.473862,242.987091 219.279114,239.126297 231.456070,222.438019 
	C233.728226,219.324097 233.978821,217.379517 230.097900,215.589935 
	C226.800858,214.069626 223.727036,212.065247 220.106598,209.930847 
	C219.433578,209.603897 218.760544,209.276932 217.646759,208.364670 
	C215.632843,208.306351 212.880859,207.365845 211.724884,208.332993 
	C204.257477,214.580444 200.705811,215.254593 191.609665,210.646347 
	C191.156036,210.342361 190.702408,210.038376 189.966080,209.088959 
	C184.728577,201.547256 185.067383,194.426971 190.919098,189.060577 
	C196.077744,184.329758 204.388168,183.315933 208.878403,188.426331 
	C213.355408,193.521652 216.585892,191.449814 220.577072,188.904938 
	C221.689713,188.195480 222.817001,187.508987 224.611389,186.690643 
	C226.182190,185.778702 227.752747,184.866348 229.323837,183.954910 
	C234.606293,180.890366 234.785507,180.407333 230.700668,175.542908 
	C220.042740,162.850922 206.450470,158.896637 189.848907,162.532669 
	C189.244110,162.733566 188.639313,162.934464 187.320724,163.193359 
	C181.893188,167.134781 176.465652,171.076187 170.562759,175.325272 
M224.463074,195.002487 
	C223.463318,195.595123 222.484116,196.226227 221.460129,196.773544 
	C217.845963,198.705353 218.194382,200.474472 221.558533,202.333069 
	C225.045410,204.259506 228.444778,206.343674 231.909760,208.310669 
	C234.522903,209.794128 236.560471,209.512665 236.706955,206.059952 
	C236.890152,201.741852 236.867447,197.406525 236.722305,193.085724 
	C236.610153,189.747177 234.754028,189.140289 232.015457,190.666809 
	C229.695923,191.959717 227.415939,193.323608 224.463074,195.002487 
z"/>
<path fill="#5D6267" opacity="1.000000" stroke="none" 
	d="
M220.554443,210.275040 
	C223.727036,212.065247 226.800858,214.069626 230.097900,215.589935 
	C233.978821,217.379517 233.728226,219.324097 231.456070,222.438019 
	C219.279114,239.126297 195.473862,242.987091 178.261887,230.908798 
	C160.791016,218.648819 156.867447,195.361694 169.729538,177.203293 
	C170.406525,177.378555 170.561981,177.522720 170.539230,177.953857 
	C169.185715,179.882095 168.479004,181.319412 171.034302,182.515442 
	C173.403839,183.624542 175.615280,185.071381 178.028458,186.444687 
	C179.014374,185.264862 179.748199,184.399780 180.468063,183.523224 
	C189.962891,171.961777 206.651321,170.606354 217.736679,180.560242 
	C219.568604,182.205185 221.156647,184.121735 223.075653,186.014191 
	C223.586624,186.275452 223.801178,186.507568 223.937561,186.811951 
	C222.817001,187.508987 221.689713,188.195480 220.577072,188.904938 
	C216.585892,191.449814 213.355408,193.521652 208.878403,188.426331 
	C204.388168,183.315933 196.077744,184.329758 190.919098,189.060577 
	C185.067383,194.426971 184.728577,201.547256 189.880829,209.643692 
	C189.643860,210.352417 189.492126,210.506393 189.084824,210.432739 
	C185.767609,207.395340 183.279297,208.143311 177.533752,213.711273 
	C182.947754,222.515900 191.143753,226.816620 201.149460,226.605637 
	C210.461029,226.409317 218.139938,222.220352 223.300232,213.968124 
	C221.833221,212.854843 220.796524,212.068130 219.968750,211.037933 
	C220.303268,210.621292 220.428864,210.448166 220.554443,210.275040 
z"/>
<path fill="#686D71" opacity="1.000000" stroke="none" 
	d="
M224.790756,194.829285 
	C227.415939,193.323608 229.695923,191.959717 232.015457,190.666809 
	C234.754028,189.140289 236.610153,189.747177 236.722305,193.085724 
	C236.867447,197.406525 236.890152,201.741852 236.706955,206.059952 
	C236.560471,209.512665 234.522903,209.794128 231.909760,208.310669 
	C228.444778,206.343674 225.045410,204.259506 221.558533,202.333069 
	C218.194382,200.474472 217.845963,198.705353 221.460129,196.773544 
	C222.484116,196.226227 223.463318,195.595123 224.790756,194.829285 
z"/>
<path fill="#707478" opacity="1.000000" stroke="none" 
	d="
M224.274475,186.751297 
	C223.801178,186.507568 223.586624,186.275452 223.269348,185.726990 
	C225.940872,183.749741 228.636963,182.161148 231.305786,180.588623 
	C225.592880,167.673813 207.755890,160.216019 191.343124,163.447876 
	C190.857239,162.848419 190.660065,162.610931 190.462891,162.373428 
	C206.450470,158.896637 220.042740,162.850922 230.700668,175.542908 
	C234.785507,180.407333 234.606293,180.890366 229.323837,183.954910 
	C227.752747,184.866348 226.182190,185.778702 224.274475,186.751297 
z"/>
<path fill="#74787C" opacity="1.000000" stroke="none" 
	d="
M191.969849,211.068985 
	C200.705811,215.254593 204.257477,214.580444 211.724884,208.332993 
	C212.880859,207.365845 215.632843,208.306351 217.652954,208.762207 
	C217.368439,209.318588 217.158234,209.550430 216.675217,209.785782 
	C214.712463,210.165878 212.714325,210.158264 211.558228,211.141113 
	C205.257980,216.497131 197.755630,216.927231 191.202698,211.897003 
	C191.685135,211.619400 191.871674,211.378387 191.969849,211.068985 
z"/>
<path fill="#75797D" opacity="1.000000" stroke="none" 
	d="
M171.038132,175.017609 
	C176.465652,171.076187 181.893188,167.134781 187.845978,163.403976 
	C188.706100,163.810623 189.040939,164.006653 189.113724,164.450241 
	C183.233932,168.463943 177.616211,172.230103 171.889450,175.786911 
	C171.596985,175.306107 171.349564,175.119446 171.038132,175.017609 
z"/>
<path fill="#5D6267" opacity="1.000000" stroke="none" 
	d="
M217.028519,209.855255 
	C217.158234,209.550430 217.368439,209.318588 217.873352,209.054871 
	C218.760544,209.276932 219.433578,209.603897 220.330521,210.102936 
	C220.428864,210.448166 220.303268,210.621292 219.664398,210.967743 
	C218.443588,210.712448 217.736053,210.283844 217.028519,209.855255 
z"/>
<path fill="#5D6267" opacity="1.000000" stroke="none" 
	d="
M170.800446,175.171448 
	C171.349564,175.119446 171.596985,175.306107 171.806519,176.042145 
	C171.460876,176.893433 171.089157,177.280151 170.717422,177.666885 
	C170.561981,177.522720 170.406525,177.378555 170.017578,177.018402 
	C170.043655,176.310043 170.303207,175.817657 170.800446,175.171448 
z"/>
<path fill="#5D6267" opacity="1.000000" stroke="none" 
	d="
M191.789764,210.857666 
	C191.871674,211.378387 191.685135,211.619400 190.942841,211.813934 
	C190.097076,211.444016 189.718735,211.052185 189.340393,210.660355 
	C189.492126,210.506393 189.643860,210.352417 190.022186,209.966400 
	C190.702408,210.038376 191.156036,210.342361 191.789764,210.857666 
z"/>
<path fill="#707478" opacity="1.000000" stroke="none" 
	d="
M189.375793,164.202682 
	C189.040939,164.006653 188.706100,163.810623 188.202881,163.374969 
	C188.639313,162.934464 189.244110,162.733566 190.155899,162.453049 
	C190.660065,162.610931 190.857239,162.848419 191.069794,163.540283 
	C190.515396,164.064011 189.945587,164.133347 189.375793,164.202682 
z"/>
<path fill="#FCFCFD" opacity="1.000000" stroke="none" 
	d="
M189.113724,164.450241 
	C189.945587,164.133347 190.515396,164.064011 191.358521,163.902252 
	C207.755890,160.216019 225.592880,167.673813 231.305786,180.588623 
	C228.636963,182.161148 225.940872,183.749741 223.051086,185.625549 
	C221.156647,184.121735 219.568604,182.205185 217.736679,180.560242 
	C206.651321,170.606354 189.962891,171.961777 180.468063,183.523224 
	C179.748199,184.399780 179.014374,185.264862 178.028458,186.444687 
	C175.615280,185.071381 173.403839,183.624542 171.034302,182.515442 
	C168.479004,181.319412 169.185715,179.882095 170.539230,177.953857 
	C171.089157,177.280151 171.460876,176.893433 171.915558,176.251465 
	C177.616211,172.230103 183.233932,168.463943 189.113724,164.450241 
z"/>
<path fill="#FBFBFB" opacity="1.000000" stroke="none" 
	d="
M189.084824,210.432739 
	C189.718735,211.052185 190.097076,211.444016 190.735260,211.918915 
	C197.755630,216.927231 205.257980,216.497131 211.558228,211.141113 
	C212.714325,210.158264 214.712463,210.165878 216.675217,209.785782 
	C217.736053,210.283844 218.443588,210.712448 219.455475,211.211243 
	C220.796524,212.068130 221.833221,212.854843 223.300232,213.968124 
	C218.139938,222.220352 210.461029,226.409317 201.149460,226.605637 
	C191.143753,226.816620 182.947754,222.515900 177.533752,213.711273 
	C183.279297,208.143311 185.767609,207.395340 189.084824,210.432739 
z"/>
</svg>