<svg version="1.1" id="Layer_1" xmlns="http://www.w3.org/2000/svg" xmlns:xlink="http://www.w3.org/1999/xlink" x="0px" y="0px"
	 width="100%" viewBox="0 0 128 128" enable-background="new 0 0 128 128" xml:space="preserve">
<path fill="#FF6D21" opacity="1.000000" stroke="none" 
	d="
M1.000000,69.000000 
	C1.000000,56.645771 1.000000,44.291542 1.242998,31.811790 
	C15.680701,23.452953 29.918472,15.292238 44.030979,6.920369 
	C46.615246,5.387323 48.690033,2.995441 51.000000,0.999999 
	C54.361286,1.000000 57.722576,1.000000 61.201103,1.231883 
	C62.076183,2.340700 62.670700,3.495575 63.617065,4.051661 
	C73.287361,9.733962 82.991661,15.359602 92.734879,20.916172 
	C98.755859,24.349947 104.923187,27.532127 110.870476,31.085566 
	C111.960526,31.736856 112.901878,33.626015 112.910378,34.950207 
	C113.038597,54.929703 113.039024,74.910545 112.905128,94.889961 
	C112.896660,96.153938 111.847000,97.922363 110.753822,98.584312 
	C103.858841,102.759407 96.793541,106.651833 89.825577,110.708183 
	C82.830811,114.780144 75.808708,118.814476 68.955025,123.114647 
	C66.408340,124.712494 64.305328,127.017479 62.000000,129.000000 
	C58.969406,129.000000 55.938812,129.000000 52.793446,128.754700 
	C45.826778,124.328819 39.161160,119.789490 32.054604,116.099327 
	C27.643143,113.808617 25.299631,111.441383 25.912527,106.107521 
	C26.700226,99.252426 26.708639,92.305130 26.963337,85.394257 
	C27.002253,84.338379 26.904724,82.629768 26.288374,82.295242 
	C17.918987,77.752823 9.446802,73.399796 1.000000,69.000000 
M21.938168,61.440685 
	C23.427874,62.294247 24.917580,63.147812 27.000439,64.341232 
	C27.000439,59.214478 26.771858,54.746056 27.122057,50.323467 
	C27.247866,48.734638 28.396358,46.693024 29.714832,45.823380 
	C35.927418,41.725628 42.203064,37.663986 48.774624,34.192158 
	C52.754116,32.089752 56.288063,28.676094 62.034801,33.046204 
	C69.564888,38.772465 78.553452,42.580803 86.997925,47.260216 
	C86.997925,58.112228 87.057793,68.765694 86.919640,79.416580 
	C86.902992,80.700005 86.166550,82.537506 85.167656,83.156837 
	C76.077805,88.792740 66.885033,94.266342 57.614857,99.600571 
	C56.891628,100.016724 55.257565,99.206322 54.215984,98.649544 
	C50.270042,96.540230 46.393780,94.300568 42.166298,91.927109 
	C42.166298,96.412476 42.166298,100.050095 42.166298,103.311745 
	C46.793995,105.980354 51.102924,108.550362 55.515297,110.928452 
	C56.280209,111.340706 57.689854,111.300949 58.452206,110.862411 
	C70.512093,103.924957 82.565727,96.972061 94.460167,89.757896 
	C95.804001,88.942841 96.865936,86.536247 96.890335,84.850754 
	C97.085587,71.362000 97.053772,57.868614 96.912361,44.378521 
	C96.898773,43.082932 96.007065,41.222469 94.948975,40.600018 
	C83.369713,33.788193 71.642456,27.228367 60.039734,20.455631 
	C57.452641,18.945494 55.349960,19.057327 52.834827,20.556370 
	C44.626259,25.448757 36.576904,30.720591 27.972433,34.806385 
	C18.419531,39.342537 15.999717,42.009796 16.000137,52.408733 
	C16.000166,53.074986 16.080963,53.752850 15.987081,54.405590 
	C15.400019,58.487267 17.509449,60.409874 21.938168,61.440685 
M53.748344,79.948547 
	C56.283905,79.671326 58.876709,79.626862 61.331940,79.023018 
	C62.646198,78.699783 63.606850,77.041718 64.928299,76.626640 
	C70.125862,74.994057 71.239113,71.649841 71.222603,66.371620 
	C71.202347,59.895340 70.382851,55.830166 63.620094,52.262184 
	C58.233536,49.420277 54.727879,48.954048 50.074585,51.969990 
	C47.931850,53.358768 43.943909,54.337128 43.752815,55.870495 
	C43.003773,61.880985 42.507996,68.256294 43.867054,74.037964 
	C44.438625,76.469528 49.856342,77.761940 53.748344,79.948547 
z"/>
<path fill="#000000" opacity="1.000000" stroke="none" 
	d="
M62.468658,129.000000 
	C64.305328,127.017479 66.408340,124.712494 68.955025,123.114647 
	C75.808708,118.814476 82.830811,114.780144 89.825577,110.708183 
	C96.793541,106.651833 103.858841,102.759407 110.753822,98.584312 
	C111.847000,97.922363 112.896660,96.153938 112.905128,94.889961 
	C113.039024,74.910545 113.038597,54.929703 112.910378,34.950207 
	C112.901878,33.626015 111.960526,31.736856 110.870476,31.085566 
	C104.923187,27.532127 98.755859,24.349947 92.734879,20.916172 
	C82.991661,15.359602 73.287361,9.733962 63.617065,4.051661 
	C62.670700,3.495575 62.076183,2.340700 61.659172,1.231883 
	C84.295982,1.000000 106.591957,1.000000 128.943970,1.000000 
	C128.943970,43.557884 128.943970,86.115868 128.943970,129.000000 
	C106.980179,129.000000 84.958748,129.000000 62.468658,129.000000 
z"/>
<path fill="#000000" opacity="1.000000" stroke="none" 
	d="
M1.000000,69.468658 
	C9.446802,73.399796 17.918987,77.752823 26.288374,82.295242 
	C26.904724,82.629768 27.002253,84.338379 26.963337,85.394257 
	C26.708639,92.305130 26.700226,99.252426 25.912527,106.107521 
	C25.299631,111.441383 27.643143,113.808617 32.054604,116.099327 
	C39.161160,119.789490 45.826778,124.328819 52.339336,128.754700 
	C35.067280,129.000000 18.134560,129.000000 1.000000,129.000000 
	C1.000000,109.312897 1.000000,89.625107 1.000000,69.468658 
z"/>
<path fill="#000000" opacity="1.000000" stroke="none" 
	d="
M50.531342,0.999999 
	C48.690033,2.995441 46.615246,5.387323 44.030979,6.920369 
	C29.918472,15.292238 15.680701,23.452953 1.242998,31.343132 
	C1.000000,21.055008 1.000000,11.110017 1.000000,1.000000 
	C17.353909,1.000000 33.708294,1.000000 50.531342,0.999999 
z"/>
<path fill="#000000" opacity="1.000000" stroke="none" 
	d="
M21.590271,61.253563 
	C17.509449,60.409874 15.400019,58.487267 15.987081,54.405590 
	C16.080963,53.752850 16.000166,53.074986 16.000137,52.408733 
	C15.999717,42.009796 18.419531,39.342537 27.972433,34.806385 
	C36.576904,30.720591 44.626259,25.448757 52.834827,20.556370 
	C55.349960,19.057327 57.452641,18.945494 60.039734,20.455631 
	C71.642456,27.228367 83.369713,33.788193 94.948975,40.600018 
	C96.007065,41.222469 96.898773,43.082932 96.912361,44.378521 
	C97.053772,57.868614 97.085587,71.362000 96.890335,84.850754 
	C96.865936,86.536247 95.804001,88.942841 94.460167,89.757896 
	C82.565727,96.972061 70.512093,103.924957 58.452206,110.862411 
	C57.689854,111.300949 56.280209,111.340706 55.515297,110.928452 
	C51.102924,108.550362 46.793995,105.980354 42.166298,103.311745 
	C42.166298,100.050095 42.166298,96.412476 42.166298,91.927109 
	C46.393780,94.300568 50.270042,96.540230 54.215984,98.649544 
	C55.257565,99.206322 56.891628,100.016724 57.614857,99.600571 
	C66.885033,94.266342 76.077805,88.792740 85.167656,83.156837 
	C86.166550,82.537506 86.902992,80.700005 86.919640,79.416580 
	C87.057793,68.765694 86.997925,58.112228 86.997925,47.260216 
	C78.553452,42.580803 69.564888,38.772465 62.034801,33.046204 
	C56.288063,28.676094 52.754116,32.089752 48.774624,34.192158 
	C42.203064,37.663986 35.927418,41.725628 29.714832,45.823380 
	C28.396358,46.693024 27.247866,48.734638 27.122057,50.323467 
	C26.771858,54.746056 27.000439,59.214478 27.000439,64.341232 
	C24.917580,63.147812 23.427874,62.294247 21.590271,61.253563 
z"/>
<path fill="#000000" opacity="1.000000" stroke="none" 
	d="
M53.409691,79.760376 
	C49.856342,77.761940 44.438625,76.469528 43.867054,74.037964 
	C42.507996,68.256294 43.003773,61.880985 43.752815,55.870495 
	C43.943909,54.337128 47.931850,53.358768 50.074585,51.969990 
	C54.727879,48.954048 58.233536,49.420277 63.620094,52.262184 
	C70.382851,55.830166 71.202347,59.895340 71.222603,66.371620 
	C71.239113,71.649841 70.125862,74.994057 64.928299,76.626640 
	C63.606850,77.041718 62.646198,78.699783 61.331940,79.023018 
	C58.876709,79.626862 56.283905,79.671326 53.409691,79.760376 
z"/>
</svg>